# xmcd CD database file
#
# Track frame offsets:
#	150
#	15044
#	28016
#	40038
#	55245
#	66832
#	88071
#	99579
#	122717
#	133274
#	144721
#	155849
#	168624
#	180900
#	209024
#
# Disc length: 2794 seconds
#
# Revision: 0
# Processed by: cddbd v1.5.2PL0 Copyright (c) Steve Scherf et al.
# Submitted via: CDex 1.51
#
DISCID=d20ae80f
DTITLE=Johnny Cash - Unchained
DYEAR=1996
DGENRE=Country
TTITLE0=rowboat
TTITLE1=sea of heartbreak
TTITLE2=rusty cage
TTITLE3=the one rose
TTITLE4=country boy
TTITLE5=memories are made of this
TTITLE6=spiritual
TTITLE7=kneeling drunkard's plea
TTITLE8=southern accents
TTITLE9=mean eyed cat
TTITLE10=meet me in heaven
TTITLE11=i never picked cotton
TTITLE12=unchained
TTITLE13=i've been everywhere
TTITLE14=Bonus track
EXTD=YEAR: 1996
EXTT0=
EXTT1=
EXTT2=
EXTT3=
EXTT4=
EXTT5=
EXTT6=
EXTT7=
EXTT8=
EXTT9=
EXTT10=
EXTT11=
EXTT12=
EXTT13=
EXTT14=
PLAYORDER=
